{"glyphs":{"0":{"ha":729,"x_min":0,"x_max":625,"o":"m 0 521 l 625 521 l 625 0 l 0 0 l 0 521 m 208 104 l 417 104 l 417 417 l 208 417 l 208 104 z "},"1":{"ha":313,"x_min":0,"x_max":208,"o":"m 0 521 l 208 521 l 208 0 l 0 0 l 0 521 z "},"2":{"ha":729,"x_min":0,"x_max":625,"o":"m 0 521 l 625 521 l 625 208 l 208 208 l 208 104 l 625 104 l 625 0 l 0 0 l 0 313 l 417 313 l 417 417 l 0 417 l 0 521 z "},"3":{"ha":729,"x_min":0,"x_max":625,"o":"m 0 521 l 625 521 l 625 313 l 521 313 l 521 208 l 625 208 l 625 0 l 0 0 l 0 104 l 417 104 l 417 208 l 208 208 l 208 313 l 417 313 l 417 417 l 0 417 l 0 521 z "},"4":{"ha":729,"x_min":0,"x_max":625,"o":"m 417 208 l 0 208 l 0 521 l 208 521 l 208 313 l 417 313 l 417 521 l 625 521 l 625 0 l 417 0 l 417 208 z "},"5":{"ha":729,"x_min":0,"x_max":625,"o":"m 0 521 l 625 521 l 625 417 l 208 417 l 208 313 l 625 313 l 625 0 l 0 0 l 0 104 l 417 104 l 417 208 l 0 208 l 0 521 z "},"6":{"ha":729,"x_min":0,"x_max":625,"o":"m 0 521 l 625 521 l 625 417 l 208 417 l 208 313 l 625 313 l 625 0 l 0 0 l 0 521 m 208 104 l 417 104 l 417 208 l 208 208 l 208 104 z "},"7":{"ha":729,"x_min":0,"x_max":625,"o":"m 0 521 l 625 521 l 625 0 l 417 0 l 417 417 l 0 417 l 0 521 z "},"8":{"ha":729,"x_min":0,"x_max":625,"o":"m 625 521 l 625 0 l 0 0 l 0 521 l 625 521 m 208 208 l 208 104 l 417 104 l 417 208 l 208 208 m 417 417 l 208 417 l 208 313 l 417 313 l 417 417 z "},"9":{"ha":729,"x_min":0,"x_max":625,"o":"m 625 521 l 625 0 l 417 0 l 417 208 l 0 208 l 0 521 l 625 521 m 208 417 l 208 313 l 417 313 l 417 417 l 208 417 z "}," ":{"ha":729,"x_min":0,"x_max":0,"o":""},"!":{"ha":313,"x_min":0,"x_max":208,"o":"m 0 521 l 208 521 l 208 208 l 0 208 l 0 521 m 0 104 l 208 104 l 208 0 l 0 0 l 0 104 z "},"\"":{"ha":625,"x_min":0,"x_max":521,"o":"m 0 521 l 208 521 l 208 313 l 0 313 l 0 521 m 313 521 l 521 521 l 521 313 l 313 313 l 313 521 z "},"#":{"ha":833,"x_min":0,"x_max":729,"o":"m 417 104 l 313 104 l 313 0 l 104 0 l 104 104 l 0 104 l 0 208 l 104 208 l 104 313 l 0 313 l 0 417 l 104 417 l 104 521 l 313 521 l 313 417 l 417 417 l 417 521 l 625 521 l 625 417 l 729 417 l 729 313 l 625 313 l 625 208 l 729 208 l 729 104 l 625 104 l 625 0 l 417 0 l 417 104 m 313 208 l 417 208 l 417 313 l 313 313 l 313 208 z "},"$":{"ha":729,"x_min":0,"x_max":625,"o":"m 208 0 l 0 0 l 0 104 l 417 104 l 417 208 l 0 208 l 0 521 l 208 521 l 208 625 l 417 625 l 417 521 l 625 521 l 625 417 l 208 417 l 208 313 l 625 313 l 625 0 l 417 0 l 417 -104 l 208 -104 l 208 0 z "},"%":{"ha":729,"x_min":0,"x_max":625,"o":"m 313 625 l 313 417 l 417 417 l 417 521 l 625 521 l 625 417 l 521 417 l 521 313 l 417 313 l 417 208 l 625 208 l 625 -104 l 313 -104 l 313 104 l 208 104 l 208 0 l 0 0 l 0 104 l 104 104 l 104 208 l 208 208 l 208 313 l 0 313 l 0 625 l 313 625 m 521 104 l 417 104 l 417 0 l 521 0 l 521 104 m 208 521 l 104 521 l 104 417 l 208 417 l 208 521 z "},"&":{"ha":729,"x_min":0,"x_max":625,"o":"m 0 208 l 104 208 l 104 313 l 0 313 l 0 521 l 208 521 l 208 625 l 417 625 l 417 521 l 625 521 l 625 417 l 208 417 l 208 313 l 417 313 l 417 208 l 208 208 l 208 104 l 625 104 l 625 0 l 417 0 l 417 -104 l 208 -104 l 208 0 l 0 0 l 0 208 z "},"'":{"ha":313,"x_min":0,"x_max":208,"o":"m 0 521 l 208 521 l 208 313 l 0 313 l 0 521 z "},"(":{"ha":521,"x_min":0,"x_max":417,"o":"m 104 104 l 0 104 l 0 417 l 104 417 l 104 521 l 417 521 l 417 417 l 208 417 l 208 104 l 417 104 l 417 0 l 104 0 l 104 104 z "},")":{"ha":521,"x_min":0,"x_max":417,"o":"m 0 104 l 208 104 l 208 417 l 0 417 l 0 521 l 313 521 l 313 417 l 417 417 l 417 104 l 313 104 l 313 0 l 0 0 l 0 104 z "},"*":{"ha":729,"x_min":0,"x_max":625,"o":"m 0 208 l 104 208 l 104 313 l 0 313 l 0 521 l 104 521 l 104 417 l 208 417 l 208 521 l 417 521 l 417 417 l 521 417 l 521 521 l 625 521 l 625 313 l 521 313 l 521 208 l 625 208 l 625 104 l 417 104 l 417 208 l 208 208 l 208 104 l 0 104 l 0 208 z "},"+":{"ha":729,"x_min":0,"x_max":625,"o":"m 417 104 l 208 104 l 208 208 l 0 208 l 0 313 l 208 313 l 208 417 l 417 417 l 417 313 l 625 313 l 625 208 l 417 208 l 417 104 z "},",":{"ha":313,"x_min":0,"x_max":208,"o":"m 0 208 l 208 208 l 208 -104 l 0 -104 l 0 208 z "},"-":{"ha":521,"x_min":0,"x_max":417,"o":"m 0 313 l 417 313 l 417 208 l 0 208 l 0 313 z "},".":{"ha":313,"x_min":0,"x_max":208,"o":"m 0 208 l 208 208 l 208 0 l 0 0 l 0 208 z "},"/":{"ha":729,"x_min":0,"x_max":625,"o":"m 417 521 l 625 521 l 625 417 l 521 417 l 521 313 l 417 313 l 417 208 l 313 208 l 313 104 l 208 104 l 208 0 l 0 0 l 0 104 l 104 104 l 104 208 l 208 208 l 208 313 l 313 313 l 313 417 l 417 417 l 417 521 z "},":":{"ha":313,"x_min":0,"x_max":208,"o":"m 0 208 l 208 208 l 208 0 l 0 0 l 0 208 m 0 521 l 208 521 l 208 313 l 0 313 l 0 521 z "},";":{"ha":313,"x_min":0,"x_max":208,"o":"m 0 208 l 208 208 l 208 -104 l 0 -104 l 0 208 m 0 521 l 208 521 l 208 313 l 0 313 l 0 521 z "},"<":{"ha":521,"x_min":0,"x_max":417,"o":"m 208 521 l 417 521 l 417 417 l 313 417 l 313 313 l 208 313 l 208 208 l 313 208 l 313 104 l 417 104 l 417 0 l 208 0 l 208 104 l 104 104 l 104 208 l 0 208 l 0 313 l 104 313 l 104 417 l 208 417 l 208 521 z "},"=":{"ha":521,"x_min":0,"x_max":417,"o":"m 0 208 l 417 208 l 417 104 l 0 104 l 0 208 m 0 417 l 417 417 l 417 313 l 0 313 l 0 417 z "},">":{"ha":521,"x_min":0,"x_max":417,"o":"m 0 521 l 208 521 l 208 417 l 313 417 l 313 313 l 417 313 l 417 208 l 313 208 l 313 104 l 208 104 l 208 0 l 0 0 l 0 104 l 104 104 l 104 208 l 208 208 l 208 313 l 104 313 l 104 417 l 0 417 l 0 521 z "},"?":{"ha":729,"x_min":0,"x_max":625,"o":"m 0 521 l 625 521 l 625 208 l 208 208 l 208 313 l 417 313 l 417 417 l 0 417 l 0 521 m 208 104 l 417 104 l 417 0 l 208 0 l 208 104 z "},"@":{"ha":833,"x_min":0,"x_max":729,"o":"m 208 0 l 729 0 l 729 -104 l 0 -104 l 0 625 l 729 625 l 729 104 l 313 104 l 313 417 l 521 417 l 521 521 l 208 521 l 208 0 m 417 208 l 521 208 l 521 313 l 417 313 l 417 208 z "},"A":{"ha":729,"x_min":0,"x_max":625,"o":"m 208 0 l 0 0 l 0 521 l 625 521 l 625 0 l 417 0 l 417 208 l 208 208 l 208 0 m 208 313 l 417 313 l 417 417 l 208 417 l 208 313 z "},"B":{"ha":729,"x_min":0,"x_max":625,"o":"m 0 521 l 625 521 l 625 313 l 521 313 l 521 208 l 625 208 l 625 0 l 0 0 l 0 521 m 208 313 l 417 313 l 417 417 l 208 417 l 208 313 m 208 104 l 417 104 l 417 208 l 208 208 l 208 104 z "},"C":{"ha":729,"x_min":0,"x_max":625,"o":"m 208 104 l 625 104 l 625 0 l 0 0 l 0 521 l 625 521 l 625 417 l 208 417 l 208 104 z "},"D":{"ha":729,"x_min":0,"x_max":625,"o":"m 0 521 l 521 521 l 521 417 l 625 417 l 625 104 l 521 104 l 521 0 l 0 0 l 0 521 m 208 104 l 417 104 l 417 417 l 208 417 l 208 104 z "},"E":{"ha":729,"x_min":0,"x_max":625,"o":"m 0 521 l 625 521 l 625 417 l 208 417 l 208 313 l 417 313 l 417 208 l 208 208 l 208 104 l 625 104 l 625 0 l 0 0 l 0 521 z "},"F":{"ha":729,"x_min":0,"x_max":625,"o":"m 208 0 l 0 0 l 0 521 l 625 521 l 625 417 l 208 417 l 208 313 l 417 313 l 417 208 l 208 208 l 208 0 z "},"G":{"ha":729,"x_min":0,"x_max":625,"o":"m 313 313 l 625 313 l 625 0 l 0 0 l 0 521 l 625 521 l 625 417 l 208 417 l 208 104 l 417 104 l 417 208 l 313 208 l 313 313 z "},"H":{"ha":729,"x_min":0,"x_max":625,"o":"m 208 0 l 0 0 l 0 521 l 208 521 l 208 313 l 417 313 l 417 521 l 625 521 l 625 0 l 417 0 l 417 208 l 208 208 l 208 0 z "},"I":{"ha":729,"x_min":0,"x_max":625,"o":"m 0 521 l 625 521 l 625 417 l 417 417 l 417 104 l 625 104 l 625 0 l 0 0 l 0 104 l 208 104 l 208 417 l 0 417 l 0 521 z "},"J":{"ha":729,"x_min":0,"x_max":625,"o":"m 0 208 l 208 208 l 208 104 l 417 104 l 417 521 l 625 521 l 625 0 l 0 0 l 0 208 z "},"K":{"ha":729,"x_min":0,"x_max":625,"o":"m 208 0 l 0 0 l 0 521 l 208 521 l 208 313 l 313 313 l 313 417 l 417 417 l 417 521 l 625 521 l 625 417 l 521 417 l 521 313 l 417 313 l 417 208 l 521 208 l 521 104 l 625 104 l 625 0 l 417 0 l 417 104 l 313 104 l 313 208 l 208 208 l 208 0 z "},"L":{"ha":729,"x_min":0,"x_max":625,"o":"m 0 521 l 208 521 l 208 104 l 625 104 l 625 0 l 0 0 l 0 521 z "},"M":{"ha":833,"x_min":0,"x_max":729,"o":"m 208 0 l 0 0 l 0 521 l 208 521 l 208 417 l 313 417 l 313 313 l 417 313 l 417 417 l 521 417 l 521 521 l 729 521 l 729 0 l 521 0 l 521 208 l 417 208 l 417 104 l 313 104 l 313 208 l 208 208 l 208 0 z "},"N":{"ha":729,"x_min":0,"x_max":625,"o":"m 208 0 l 0 0 l 0 521 l 208 521 l 208 417 l 313 417 l 313 313 l 417 313 l 417 521 l 625 521 l 625 0 l 417 0 l 417 104 l 313 104 l 313 208 l 208 208 l 208 0 z "},"O":{"ha":729,"x_min":0,"x_max":625,"o":"m 0 521 l 625 521 l 625 0 l 0 0 l 0 521 m 208 104 l 417 104 l 417 417 l 208 417 l 208 104 z "},"P":{"ha":729,"x_min":0,"x_max":625,"o":"m 208 0 l 0 0 l 0 521 l 625 521 l 625 208 l 208 208 l 208 0 m 208 313 l 417 313 l 417 417 l 208 417 l 208 313 z "},"Q":{"ha":729,"x_min":0,"x_max":625,"o":"m 0 521 l 625 521 l 625 0 l 417 0 l 417 -104 l 208 -104 l 208 0 l 0 0 l 0 521 m 208 104 l 417 104 l 417 417 l 208 417 l 208 104 z "},"R":{"ha":729,"x_min":0,"x_max":625,"o":"m 208 0 l 0 0 l 0 521 l 625 521 l 625 313 l 521 313 l 521 208 l 625 208 l 625 0 l 417 0 l 417 208 l 208 208 l 208 0 m 208 313 l 417 313 l 417 417 l 208 417 l 208 313 z "},"S":{"ha":729,"x_min":0,"x_max":625,"o":"m 0 521 l 625 521 l 625 417 l 208 417 l 208 313 l 625 313 l 625 0 l 0 0 l 0 104 l 417 104 l 417 208 l 0 208 l 0 521 z "},"T":{"ha":729,"x_min":0,"x_max":625,"o":"m 0 521 l 625 521 l 625 417 l 417 417 l 417 0 l 208 0 l 208 417 l 0 417 l 0 521 z "},"U":{"ha":729,"x_min":0,"x_max":625,"o":"m 0 521 l 208 521 l 208 104 l 417 104 l 417 521 l 625 521 l 625 0 l 0 0 l 0 521 z "},"V":{"ha":729,"x_min":0,"x_max":625,"o":"m 0 521 l 208 521 l 208 208 l 417 208 l 417 521 l 625 521 l 625 208 l 521 208 l 521 104 l 417 104 l 417 0 l 208 0 l 208 104 l 104 104 l 104 208 l 0 208 l 0 521 z "},"W":{"ha":833,"x_min":0,"x_max":729,"o":"m 208 0 l 0 0 l 0 521 l 208 521 l 208 313 l 313 313 l 313 417 l 417 417 l 417 313 l 521 313 l 521 521 l 729 521 l 729 0 l 521 0 l 521 104 l 417 104 l 417 208 l 313 208 l 313 104 l 208 104 l 208 0 z "},"X":{"ha":729,"x_min":0,"x_max":625,"o":"m 0 521 l 208 521 l 208 313 l 417 313 l 417 521 l 625 521 l 625 313 l 521 313 l 521 208 l 625 208 l 625 0 l 417 0 l 417 208 l 208 208 l 208 0 l 0 0 l 0 208 l 104 208 l 104 313 l 0 313 l 0 521 z "},"Y":{"ha":729,"x_min":0,"x_max":625,"o":"m 0 521 l 208 521 l 208 313 l 417 313 l 417 521 l 625 521 l 625 313 l 521 313 l 521 208 l 417 208 l 417 0 l 208 0 l 208 208 l 104 208 l 104 313 l 0 313 l 0 521 z "},"Z":{"ha":729,"x_min":0,"x_max":625,"o":"m 0 521 l 625 521 l 625 417 l 521 417 l 521 313 l 417 313 l 417 208 l 313 208 l 313 104 l 625 104 l 625 0 l 0 0 l 0 104 l 104 104 l 104 208 l 208 208 l 208 313 l 313 313 l 313 417 l 0 417 l 0 521 z "},"[":{"ha":521,"x_min":0,"x_max":417,"o":"m 208 104 l 417 104 l 417 0 l 0 0 l 0 521 l 417 521 l 417 417 l 208 417 l 208 104 z "},"\\":{"ha":729,"x_min":0,"x_max":625,"o":"m 0 521 l 208 521 l 208 417 l 313 417 l 313 313 l 417 313 l 417 208 l 521 208 l 521 104 l 625 104 l 625 0 l 417 0 l 417 104 l 313 104 l 313 208 l 208 208 l 208 313 l 104 313 l 104 417 l 0 417 l 0 521 z "},"]":{"ha":521,"x_min":0,"x_max":417,"o":"m 0 104 l 208 104 l 208 417 l 0 417 l 0 521 l 417 521 l 417 0 l 0 0 l 0 104 z "},"^":{"ha":417,"x_min":0,"x_max":313,"o":"m 104 208 l 0 208 l 0 417 l 104 417 l 104 521 l 208 521 l 208 417 l 313 417 l 313 208 l 208 208 l 208 313 l 104 313 l 104 208 z "},"_":{"ha":521,"x_min":0,"x_max":417,"o":"m 0 0 l 417 0 l 417 -104 l 0 -104 l 0 0 z "},"`":{"ha":313,"x_min":0,"x_max":208,"o":"m 0 521 l 208 521 l 208 313 l 0 313 l 0 521 z "},"a":{"ha":729,"x_min":0,"x_max":625,"o":"m 0 521 l 625 521 l 625 0 l 0 0 l 0 313 l 417 313 l 417 417 l 0 417 l 0 521 m 417 208 l 208 208 l 208 104 l 417 104 l 417 208 z "},"b":{"ha":729,"x_min":0,"x_max":625,"o":"m 521 0 l 0 0 l 0 521 l 521 521 l 521 417 l 625 417 l 625 313 l 521 313 l 521 208 l 625 208 l 625 104 l 521 104 l 521 0 m 208 104 l 417 104 l 417 208 l 208 208 l 208 104 m 208 313 l 417 313 l 417 417 l 208 417 l 208 313 z "},"c":{"ha":729,"x_min":0,"x_max":625,"o":"m 208 104 l 625 104 l 625 0 l 0 0 l 0 521 l 625 521 l 625 417 l 208 417 l 208 104 z "},"d":{"ha":729,"x_min":0,"x_max":625,"o":"m 0 521 l 521 521 l 521 417 l 625 417 l 625 104 l 521 104 l 521 0 l 0 0 l 0 521 m 208 104 l 417 104 l 417 417 l 208 417 l 208 104 z "},"e":{"ha":729,"x_min":0,"x_max":625,"o":"m 208 104 l 625 104 l 625 0 l 0 0 l 0 521 l 625 521 l 625 208 l 208 208 l 208 104 m 208 313 l 417 313 l 417 417 l 208 417 l 208 313 z "},"f":{"ha":729,"x_min":0,"x_max":625,"o":"m 208 0 l 0 0 l 0 521 l 625 521 l 625 417 l 208 417 l 208 313 l 417 313 l 417 208 l 208 208 l 208 0 z "},"g":{"ha":729,"x_min":0,"x_max":625,"o":"m 0 104 l 417 104 l 417 208 l 0 208 l 0 521 l 625 521 l 625 0 l 0 0 l 0 104 m 208 313 l 417 313 l 417 417 l 208 417 l 208 313 z "},"h":{"ha":729,"x_min":0,"x_max":625,"o":"m 208 0 l 0 0 l 0 521 l 208 521 l 208 313 l 417 313 l 417 521 l 625 521 l 625 0 l 417 0 l 417 208 l 208 208 l 208 0 z "},"i":{"ha":313,"x_min":0,"x_max":208,"o":"m 0 521 l 208 521 l 208 0 l 0 0 l 0 521 z "},"j":{"ha":729,"x_min":0,"x_max":625,"o":"m 0 208 l 208 208 l 208 104 l 417 104 l 417 521 l 625 521 l 625 0 l 0 0 l 0 208 z "},"k":{"ha":729,"x_min":0,"x_max":625,"o":"m 208 0 l 0 0 l 0 521 l 208 521 l 208 313 l 313 313 l 313 417 l 417 417 l 417 521 l 625 521 l 625 417 l 521 417 l 521 313 l 417 313 l 417 208 l 521 208 l 521 104 l 625 104 l 625 0 l 417 0 l 417 104 l 313 104 l 313 208 l 208 208 l 208 0 z "},"l":{"ha":729,"x_min":0,"x_max":625,"o":"m 0 521 l 208 521 l 208 104 l 625 104 l 625 0 l 0 0 l 0 521 z "},"m":{"ha":938,"x_min":0,"x_max":833,"o":"m 208 0 l 0 0 l 0 521 l 833 521 l 833 0 l 625 0 l 625 417 l 521 417 l 521 0 l 313 0 l 313 417 l 208 417 l 208 0 z "},"n":{"ha":729,"x_min":0,"x_max":625,"o":"m 208 0 l 0 0 l 0 521 l 625 521 l 625 0 l 417 0 l 417 417 l 208 417 l 208 0 z "},"o":{"ha":729,"x_min":0,"x_max":625,"o":"m 0 521 l 625 521 l 625 0 l 0 0 l 0 521 m 208 104 l 417 104 l 417 417 l 208 417 l 208 104 z "},"p":{"ha":729,"x_min":0,"x_max":625,"o":"m 208 0 l 0 0 l 0 521 l 625 521 l 625 208 l 208 208 l 208 0 m 208 313 l 417 313 l 417 417 l 208 417 l 208 313 z "},"q":{"ha":729,"x_min":0,"x_max":625,"o":"m 0 521 l 625 521 l 625 0 l 417 0 l 417 -104 l 208 -104 l 208 0 l 0 0 l 0 521 m 208 104 l 417 104 l 417 417 l 208 417 l 208 104 z "},"r":{"ha":729,"x_min":0,"x_max":625,"o":"m 208 0 l 0 0 l 0 521 l 521 521 l 521 417 l 625 417 l 625 313 l 521 313 l 521 208 l 625 208 l 625 0 l 417 0 l 417 208 l 208 208 l 208 0 m 208 313 l 417 313 l 417 417 l 208 417 l 208 313 z "},"s":{"ha":729,"x_min":0,"x_max":625,"o":"m 0 521 l 625 521 l 625 417 l 208 417 l 208 313 l 625 313 l 625 0 l 0 0 l 0 104 l 417 104 l 417 208 l 0 208 l 0 521 z "},"t":{"ha":729,"x_min":0,"x_max":625,"o":"m 0 521 l 625 521 l 625 417 l 417 417 l 417 0 l 208 0 l 208 417 l 0 417 l 0 521 z "},"u":{"ha":729,"x_min":0,"x_max":625,"o":"m 0 521 l 208 521 l 208 104 l 417 104 l 417 521 l 625 521 l 625 0 l 0 0 l 0 521 z "},"v":{"ha":729,"x_min":0,"x_max":625,"o":"m 0 521 l 208 521 l 208 208 l 417 208 l 417 521 l 625 521 l 625 208 l 521 208 l 521 104 l 417 104 l 417 0 l 208 0 l 208 104 l 104 104 l 104 208 l 0 208 l 0 521 z "},"w":{"ha":938,"x_min":0,"x_max":833,"o":"m 0 521 l 208 521 l 208 104 l 313 104 l 313 521 l 521 521 l 521 104 l 625 104 l 625 521 l 833 521 l 833 0 l 0 0 l 0 521 z "},"x":{"ha":729,"x_min":0,"x_max":625,"o":"m 0 208 l 208 208 l 208 313 l 0 313 l 0 521 l 208 521 l 208 417 l 417 417 l 417 521 l 625 521 l 625 313 l 417 313 l 417 208 l 625 208 l 625 0 l 417 0 l 417 104 l 208 104 l 208 0 l 0 0 l 0 208 z "},"y":{"ha":729,"x_min":0,"x_max":625,"o":"m 0 104 l 417 104 l 417 208 l 0 208 l 0 521 l 208 521 l 208 313 l 417 313 l 417 521 l 625 521 l 625 0 l 0 0 l 0 104 z "},"z":{"ha":729,"x_min":0,"x_max":625,"o":"m 0 521 l 625 521 l 625 417 l 521 417 l 521 313 l 417 313 l 417 208 l 313 208 l 313 104 l 625 104 l 625 0 l 0 0 l 0 104 l 104 104 l 104 208 l 208 208 l 208 313 l 313 313 l 313 417 l 0 417 l 0 521 z "},"{":{"ha":625,"x_min":0,"x_max":521,"o":"m 104 208 l 0 208 l 0 313 l 104 313 l 104 521 l 521 521 l 521 417 l 313 417 l 313 104 l 521 104 l 521 0 l 104 0 l 104 208 z "},"|":{"ha":313,"x_min":0,"x_max":208,"o":"m 0 521 l 208 521 l 208 -208 l 0 -208 l 0 521 z "},"}":{"ha":625,"x_min":0,"x_max":521,"o":"m 0 521 l 417 521 l 417 313 l 521 313 l 521 208 l 417 208 l 417 0 l 0 0 l 0 104 l 208 104 l 208 417 l 0 417 l 0 521 z "},"~":{"ha":729,"x_min":0,"x_max":625,"o":"m 104 104 l 0 104 l 0 313 l 104 313 l 104 417 l 313 417 l 313 313 l 417 313 l 417 208 l 521 208 l 521 313 l 625 313 l 625 104 l 521 104 l 521 0 l 313 0 l 313 104 l 208 104 l 208 208 l 104 208 l 104 104 z "},"":{"ha":625,"x_min":0,"x_max":521,"o":"m 0 521 l 521 521 l 521 0 l 0 0 l 0 521 m 104 313 l 208 313 l 208 208 l 313 208 l 313 104 l 417 104 l 417 208 l 313 208 l 313 313 l 208 313 l 208 417 l 104 417 l 104 313 m 104 104 l 208 104 l 208 208 l 104 208 l 104 104 m 313 417 l 313 313 l 417 313 l 417 417 l 313 417 z "},"":{"ha":625,"x_min":0,"x_max":521,"o":"m 0 521 l 521 521 l 521 0 l 0 0 l 0 521 m 313 208 l 417 208 l 417 313 l 313 313 l 313 208 m 313 417 l 208 417 l 208 313 l 313 313 l 313 417 m 208 104 l 313 104 l 313 208 l 208 208 l 208 104 m 208 313 l 104 313 l 104 208 l 208 208 l 208 313 z "},"":{"ha":625,"x_min":0,"x_max":521,"o":"m 0 521 l 521 521 l 521 0 l 0 0 l 0 521 m 104 104 l 208 104 l 208 208 l 104 208 l 104 104 m 104 313 l 208 313 l 208 417 l 104 417 l 104 313 m 417 104 l 417 208 l 313 208 l 313 104 l 417 104 m 313 417 l 313 313 l 417 313 l 417 417 l 313 417 z "},"‚":{"ha":625,"x_min":0,"x_max":521,"o":"m 0 521 l 521 521 l 521 0 l 0 0 l 0 521 m 104 104 l 417 104 l 417 417 l 104 417 l 104 104 m 208 313 l 313 313 l 313 208 l 208 208 l 208 313 z "},"ƒ":{"ha":625,"x_min":0,"x_max":521,"o":"m 0 521 l 521 521 l 521 0 l 0 0 l 0 521 m 313 417 l 208 417 l 208 313 l 104 313 l 104 208 l 208 208 l 208 104 l 313 104 l 313 208 l 417 208 l 417 313 l 313 313 l 313 417 z "},"„":{"ha":625,"x_min":0,"x_max":521,"o":"m 0 521 l 521 521 l 521 0 l 0 0 l 0 521 m 208 208 l 313 208 l 313 313 l 208 313 l 208 208 z "},"…":{"ha":625,"x_min":0,"x_max":521,"o":"m 0 521 l 521 521 l 521 0 l 0 0 l 0 521 z "},"†":{"ha":625,"x_min":0,"x_max":521,"o":"m 0 521 l 521 521 l 521 0 l 0 0 l 0 521 m 104 208 l 208 208 l 208 104 l 417 104 l 417 313 l 313 313 l 313 417 l 104 417 l 104 208 m 208 208 l 313 208 l 313 313 l 208 313 l 208 208 z "},"‡":{"ha":625,"x_min":0,"x_max":521,"o":"m 0 521 l 521 521 l 521 0 l 0 0 l 0 521 m 104 104 l 313 104 l 313 208 l 208 208 l 208 313 l 104 313 l 104 104 m 208 417 l 208 313 l 313 313 l 313 208 l 417 208 l 417 417 l 208 417 z "},"ˆ":{"ha":625,"x_min":0,"x_max":521,"o":"m 0 521 l 521 521 l 521 0 l 0 0 l 0 521 m 104 104 l 417 104 l 417 417 l 104 417 l 104 104 z "},"‰":{"ha":625,"x_min":0,"x_max":521,"o":"m 0 521 l 521 521 l 521 0 l 0 0 l 0 521 m 104 104 l 417 104 l 417 313 l 104 313 l 104 104 z "},"Š":{"ha":625,"x_min":0,"x_max":521,"o":"m 0 521 l 521 521 l 521 0 l 0 0 l 0 521 m 104 104 l 417 104 l 417 208 l 104 208 l 104 104 m 104 313 l 417 313 l 417 417 l 104 417 l 104 313 z "},"‹":{"ha":625,"x_min":0,"x_max":521,"o":"m 0 521 l 521 521 l 521 0 l 0 0 l 0 521 m 104 208 l 417 208 l 417 417 l 104 417 l 104 208 z "},"Œ":{"ha":625,"x_min":0,"x_max":521,"o":"m 0 521 l 521 521 l 521 0 l 0 0 l 0 521 m 208 417 l 208 104 l 417 104 l 417 417 l 208 417 z "},"":{"ha":625,"x_min":0,"x_max":521,"o":"m 0 521 l 521 521 l 521 0 l 0 0 l 0 521 m 104 104 l 208 104 l 208 417 l 104 417 l 104 104 m 313 417 l 313 104 l 417 104 l 417 417 l 313 417 z "},"":{"ha":625,"x_min":0,"x_max":521,"o":"m 0 521 l 521 521 l 521 0 l 0 0 l 0 521 m 104 104 l 313 104 l 313 417 l 104 417 l 104 104 z "},"":{"ha":625,"x_min":0,"x_max":521,"o":"m 0 521 l 521 521 l 521 0 l 0 0 l 0 521 m 208 208 l 313 208 l 313 104 l 417 104 l 417 417 l 313 417 l 313 313 l 208 313 l 208 417 l 104 417 l 104 104 l 208 104 l 208 208 z "},"":{"ha":625,"x_min":0,"x_max":521,"o":"m 0 521 l 521 521 l 521 0 l 0 0 l 0 521 m 313 313 l 417 313 l 417 417 l 104 417 l 104 313 l 208 313 l 208 208 l 104 208 l 104 104 l 417 104 l 417 208 l 313 208 l 313 313 z "},"‘":{"ha":313,"x_min":0,"x_max":208,"o":"m 0 625 l 104 625 l 104 521 l 208 521 l 208 313 l 0 313 l 0 625 z "},"’":{"ha":313,"x_min":0,"x_max":208,"o":"m 0 521 l 208 521 l 208 208 l 104 208 l 104 313 l 0 313 l 0 521 z "},"“":{"ha":625,"x_min":0,"x_max":521,"o":"m 0 521 l 521 521 l 521 0 l 0 0 l 0 521 m 104 104 l 208 104 l 208 313 l 417 313 l 417 417 l 104 417 l 104 104 z "},"”":{"ha":625,"x_min":0,"x_max":521,"o":"m 0 521 l 521 521 l 521 0 l 0 0 l 0 521 m 104 313 l 313 313 l 313 104 l 417 104 l 417 417 l 104 417 l 104 313 z "},"•":{"ha":625,"x_min":0,"x_max":521,"o":"m 0 521 l 521 521 l 521 0 l 0 0 l 0 521 m 104 104 l 417 104 l 417 417 l 313 417 l 313 208 l 104 208 l 104 104 z "},"–":{"ha":625,"x_min":0,"x_max":521,"o":"m 0 521 l 521 521 l 521 0 l 0 0 l 0 521 m 104 104 l 417 104 l 417 208 l 208 208 l 208 417 l 104 417 l 104 104 z "},"—":{"ha":625,"x_min":0,"x_max":521,"o":"m 0 521 l 521 521 l 521 0 l 0 0 l 0 521 m 208 104 l 417 104 l 417 313 l 208 313 l 208 104 z "},"˜":{"ha":625,"x_min":0,"x_max":521,"o":"m 0 521 l 521 521 l 521 0 l 0 0 l 0 521 m 104 104 l 313 104 l 313 313 l 104 313 l 104 104 z "},"™":{"ha":625,"x_min":0,"x_max":521,"o":"m 0 521 l 521 521 l 521 0 l 0 0 l 0 521 m 104 208 l 313 208 l 313 417 l 104 417 l 104 208 z "},"š":{"ha":625,"x_min":0,"x_max":521,"o":"m 0 521 l 521 521 l 521 0 l 0 0 l 0 521 m 208 417 l 208 208 l 417 208 l 417 417 l 208 417 z "},"›":{"ha":625,"x_min":0,"x_max":521,"o":"m 0 521 l 521 521 l 521 0 l 0 0 l 0 521 m 104 104 l 208 104 l 208 313 l 417 313 l 417 417 l 104 417 l 104 104 m 313 104 l 417 104 l 417 208 l 313 208 l 313 104 z "},"œ":{"ha":625,"x_min":0,"x_max":521,"o":"m 0 521 l 521 521 l 521 0 l 0 0 l 0 521 m 104 313 l 313 313 l 313 104 l 417 104 l 417 417 l 104 417 l 104 313 m 104 104 l 208 104 l 208 208 l 104 208 l 104 104 z "},"":{"ha":625,"x_min":0,"x_max":521,"o":"m 0 521 l 521 521 l 521 0 l 0 0 l 0 521 m 104 104 l 417 104 l 417 417 l 313 417 l 313 208 l 104 208 l 104 104 m 104 313 l 208 313 l 208 417 l 104 417 l 104 313 z "},"":{"ha":625,"x_min":0,"x_max":521,"o":"m 0 521 l 521 521 l 521 0 l 0 0 l 0 521 m 104 104 l 417 104 l 417 208 l 208 208 l 208 417 l 104 417 l 104 104 m 313 417 l 313 313 l 417 313 l 417 417 l 313 417 z "},"Ÿ":{"ha":625,"x_min":0,"x_max":521,"o":"m 104 313 l 0 313 l 0 521 l 208 521 l 208 417 l 104 417 l 104 313 m 313 521 l 521 521 l 521 313 l 417 313 l 417 417 l 313 417 l 313 521 m 313 104 l 417 104 l 417 208 l 521 208 l 521 0 l 313 0 l 313 104 m 0 208 l 104 208 l 104 104 l 208 104 l 208 0 l 0 0 l 0 208 m 208 313 l 313 313 l 313 208 l 208 208 l 208 313 z "}," ":{"ha":729,"x_min":0,"x_max":0,"o":""},"¡":{"ha":313,"x_min":0,"x_max":208,"o":"m 0 313 l 208 313 l 208 0 l 0 0 l 0 313 m 0 521 l 208 521 l 208 417 l 0 417 l 0 521 z "},"¢":{"ha":729,"x_min":0,"x_max":625,"o":"m 208 0 l 0 0 l 0 521 l 208 521 l 208 625 l 417 625 l 417 521 l 625 521 l 625 417 l 208 417 l 208 104 l 625 104 l 625 0 l 417 0 l 417 -104 l 208 -104 l 208 0 z "},"£":{"ha":729,"x_min":0,"x_max":625,"o":"m 521 417 l 313 417 l 313 313 l 417 313 l 417 208 l 313 208 l 313 104 l 625 104 l 625 0 l 0 0 l 0 104 l 104 104 l 104 208 l 0 208 l 0 313 l 104 313 l 104 417 l 208 417 l 208 521 l 521 521 l 521 417 l 625 417 l 625 313 l 521 313 l 521 417 z "},"¤":{"ha":625,"x_min":0,"x_max":521,"o":"m 104 417 l 0 417 l 0 521 l 104 521 l 104 417 l 417 417 l 417 104 l 521 104 l 521 0 l 417 0 l 417 104 l 104 104 l 104 417 m 417 521 l 521 521 l 521 417 l 417 417 l 417 521 m 0 104 l 104 104 l 104 0 l 0 0 l 0 104 m 208 208 l 313 208 l 313 313 l 208 313 l 208 208 z "},"¥":{"ha":729,"x_min":0,"x_max":625,"o":"m 104 104 l 208 104 l 208 208 l 104 208 l 104 313 l 0 313 l 0 521 l 208 521 l 208 313 l 417 313 l 417 521 l 625 521 l 625 313 l 521 313 l 521 208 l 417 208 l 417 104 l 521 104 l 521 0 l 417 0 l 417 -104 l 208 -104 l 208 0 l 104 0 l 104 104 z "},"¦":{"ha":313,"x_min":0,"x_max":208,"o":"m 0 625 l 208 625 l 208 313 l 0 313 l 0 625 m 0 208 l 208 208 l 208 -104 l 0 -104 l 0 208 z "},"§":{"ha":729,"x_min":0,"x_max":625,"o":"m 0 625 l 625 625 l 625 521 l 208 521 l 208 417 l 625 417 l 625 -104 l 0 -104 l 0 0 l 417 0 l 417 104 l 0 104 l 0 625 m 208 313 l 208 208 l 417 208 l 417 313 l 208 313 z "},"¨":{"ha":625,"x_min":0,"x_max":521,"o":"m 0 521 l 208 521 l 208 313 l 0 313 l 0 521 m 313 521 l 521 521 l 521 313 l 313 313 l 313 521 z "},"©":{"ha":833,"x_min":0,"x_max":729,"o":"m 104 0 l 0 0 l 0 521 l 104 521 l 104 0 l 625 0 l 625 -104 l 104 -104 l 104 0 m 104 625 l 625 625 l 625 521 l 729 521 l 729 0 l 625 0 l 625 521 l 104 521 l 104 625 m 521 417 l 521 313 l 313 313 l 313 208 l 521 208 l 521 104 l 208 104 l 208 417 l 521 417 z "},"ª":{"ha":417,"x_min":0,"x_max":313,"o":"m 0 521 l 313 521 l 313 0 l 0 0 l 0 313 l 208 313 l 208 417 l 0 417 l 0 521 m 104 104 l 208 104 l 208 208 l 104 208 l 104 104 z "},"«":{"ha":729,"x_min":0,"x_max":625,"o":"m 313 104 l 104 104 l 104 208 l 0 208 l 0 313 l 104 313 l 104 417 l 313 417 l 313 313 l 417 313 l 417 417 l 625 417 l 625 313 l 521 313 l 521 208 l 625 208 l 625 104 l 417 104 l 417 208 l 313 208 l 313 104 m 313 313 l 208 313 l 208 208 l 313 208 l 313 313 z "},"¬":{"ha":729,"x_min":0,"x_max":625,"o":"m 0 313 l 625 313 l 625 0 l 417 0 l 417 208 l 0 208 l 0 313 z "},"­":{"ha":313,"x_min":0,"x_max":208,"o":"m 0 313 l 208 313 l 208 208 l 0 208 l 0 313 z "},"®":{"ha":833,"x_min":0,"x_max":729,"o":"m 104 0 l 0 0 l 0 521 l 104 521 l 104 0 l 625 0 l 625 -104 l 104 -104 l 104 0 m 104 625 l 625 625 l 625 521 l 729 521 l 729 0 l 625 0 l 625 521 l 104 521 l 104 625 m 417 208 l 313 208 l 313 104 l 208 104 l 208 417 l 521 417 l 521 313 l 417 313 l 417 208 l 521 208 l 521 104 l 417 104 l 417 208 z "},"¯":{"ha":521,"x_min":0,"x_max":417,"o":"m 0 729 l 417 729 l 417 625 l 0 625 l 0 729 z "},"°":{"ha":417,"x_min":0,"x_max":313,"o":"m 313 729 l 313 417 l 0 417 l 0 729 l 313 729 m 208 625 l 104 625 l 104 521 l 208 521 l 208 625 z "},"±":{"ha":729,"x_min":0,"x_max":625,"o":"m 0 417 l 208 417 l 208 521 l 417 521 l 417 417 l 625 417 l 625 313 l 417 313 l 417 208 l 208 208 l 208 313 l 0 313 l 0 417 m 0 104 l 625 104 l 625 0 l 0 0 l 0 104 z "},"²":{"ha":417,"x_min":0,"x_max":313,"o":"m 0 417 l 104 417 l 104 521 l 208 521 l 208 417 l 313 417 l 313 313 l 0 313 l 0 417 m 208 625 l 0 625 l 0 729 l 208 729 l 208 625 l 313 625 l 313 521 l 208 521 l 208 625 z "},"³":{"ha":417,"x_min":0,"x_max":313,"o":"m 0 729 l 208 729 l 208 625 l 313 625 l 313 417 l 208 417 l 208 521 l 104 521 l 104 625 l 0 625 l 0 729 m 0 417 l 208 417 l 208 313 l 0 313 l 0 417 z "},"´":{"ha":417,"x_min":0,"x_max":313,"o":"m 0 625 l 104 625 l 104 729 l 313 729 l 313 625 l 208 625 l 208 521 l 0 521 l 0 625 z "},"µ":{"ha":833,"x_min":0,"x_max":729,"o":"m 0 -104 l 104 -104 l 104 521 l 313 521 l 313 104 l 521 104 l 521 521 l 729 521 l 729 0 l 313 0 l 313 -104 l 208 -104 l 208 -208 l 0 -208 l 0 -104 z "},"¶":{"ha":625,"x_min":0,"x_max":521,"o":"m 417 0 l 208 0 l 208 208 l 104 208 l 104 313 l 0 313 l 0 521 l 104 521 l 104 625 l 521 625 l 521 521 l 417 521 l 417 0 z "},"·":{"ha":417,"x_min":0,"x_max":313,"o":"m 0 417 l 313 417 l 313 104 l 0 104 l 0 417 z "},"¸":{"ha":313,"x_min":0,"x_max":208,"o":"m 0 -104 l 104 -104 l 104 0 l 208 0 l 208 -208 l 0 -208 l 0 -104 z "},"¹":{"ha":208,"x_min":0,"x_max":104,"o":"m 0 729 l 104 729 l 104 313 l 0 313 l 0 729 z "},"º":{"ha":417,"x_min":0,"x_max":313,"o":"m 0 729 l 313 729 l 313 313 l 0 313 l 0 729 m 104 417 l 208 417 l 208 625 l 104 625 l 104 417 z "},"»":{"ha":729,"x_min":0,"x_max":625,"o":"m 0 417 l 208 417 l 208 313 l 313 313 l 313 208 l 417 208 l 417 313 l 313 313 l 313 417 l 521 417 l 521 313 l 625 313 l 625 208 l 521 208 l 521 104 l 313 104 l 313 208 l 208 208 l 208 104 l 0 104 l 0 208 l 104 208 l 104 313 l 0 313 l 0 417 z "},"¼":{"ha":729,"x_min":0,"x_max":625,"o":"m 0 625 l 104 625 l 104 208 l 208 208 l 208 313 l 313 313 l 313 417 l 417 417 l 417 521 l 625 521 l 625 417 l 521 417 l 521 313 l 625 313 l 625 -104 l 521 -104 l 521 0 l 313 0 l 313 104 l 208 104 l 208 0 l 0 0 l 0 104 l 104 104 l 104 208 l 0 208 l 0 625 m 521 313 l 521 104 l 417 104 l 417 313 l 521 313 z "},"½":{"ha":729,"x_min":0,"x_max":625,"o":"m 0 625 l 104 625 l 104 208 l 208 208 l 208 313 l 313 313 l 313 417 l 417 417 l 417 521 l 625 521 l 625 417 l 521 417 l 521 208 l 625 208 l 625 104 l 521 104 l 521 208 l 313 208 l 313 104 l 208 104 l 208 0 l 0 0 l 0 104 l 104 104 l 104 208 l 0 208 l 0 625 m 417 104 l 521 104 l 521 0 l 625 0 l 625 -104 l 313 -104 l 313 0 l 417 0 l 417 104 z "},"¾":{"ha":729,"x_min":0,"x_max":625,"o":"m 313 104 l 208 104 l 208 0 l 0 0 l 0 104 l 104 104 l 104 208 l 0 208 l 0 313 l 208 313 l 208 417 l 104 417 l 104 521 l 0 521 l 0 625 l 208 625 l 208 521 l 313 521 l 313 417 l 417 417 l 417 521 l 625 521 l 625 417 l 521 417 l 521 313 l 625 313 l 625 -104 l 521 -104 l 521 0 l 313 0 l 313 104 m 417 104 l 521 104 l 521 313 l 417 313 l 417 104 z "},"¿":{"ha":729,"x_min":0,"x_max":625,"o":"m 417 313 l 417 208 l 208 208 l 208 104 l 625 104 l 625 0 l 0 0 l 0 313 l 417 313 m 208 521 l 417 521 l 417 417 l 208 417 l 208 521 z "},"À":{"ha":729,"x_min":0,"x_max":625,"o":"m 208 0 l 0 0 l 0 521 l 208 521 l 208 625 l 104 625 l 104 729 l 313 729 l 313 625 l 417 625 l 417 521 l 625 521 l 625 0 l 417 0 l 417 208 l 208 208 l 208 0 m 208 313 l 417 313 l 417 417 l 208 417 l 208 313 z "},"Á":{"ha":729,"x_min":0,"x_max":625,"o":"m 208 0 l 0 0 l 0 521 l 208 521 l 208 625 l 313 625 l 313 729 l 521 729 l 521 625 l 417 625 l 417 521 l 625 521 l 625 0 l 417 0 l 417 208 l 208 208 l 208 0 m 208 313 l 417 313 l 417 417 l 208 417 l 208 313 z "},"Â":{"ha":729,"x_min":0,"x_max":625,"o":"m 104 625 l 208 625 l 208 521 l 417 521 l 417 625 l 208 625 l 208 729 l 417 729 l 417 625 l 521 625 l 521 521 l 625 521 l 625 0 l 417 0 l 417 208 l 208 208 l 208 0 l 0 0 l 0 521 l 104 521 l 104 625 m 208 313 l 417 313 l 417 417 l 208 417 l 208 313 z "},"Ã":{"ha":729,"x_min":0,"x_max":625,"o":"m 208 0 l 0 0 l 0 625 l 104 625 l 104 521 l 313 521 l 313 625 l 104 625 l 104 729 l 313 729 l 313 625 l 521 625 l 521 521 l 625 521 l 625 0 l 417 0 l 417 208 l 208 208 l 208 0 m 208 313 l 417 313 l 417 417 l 208 417 l 208 313 m 521 729 l 625 729 l 625 625 l 521 625 l 521 729 z "},"Ä":{"ha":729,"x_min":0,"x_max":625,"o":"m 208 0 l 0 0 l 0 521 l 625 521 l 625 0 l 417 0 l 417 208 l 208 208 l 208 0 m 208 313 l 417 313 l 417 417 l 208 417 l 208 313 m 0 729 l 208 729 l 208 625 l 0 625 l 0 729 m 417 729 l 625 729 l 625 625 l 417 625 l 417 729 z "},"Å":{"ha":729,"x_min":0,"x_max":625,"o":"m 208 0 l 0 0 l 0 521 l 104 521 l 104 729 l 521 729 l 521 521 l 625 521 l 625 0 l 417 0 l 417 208 l 208 208 l 208 0 m 208 313 l 417 313 l 417 417 l 208 417 l 208 313 m 208 521 l 417 521 l 417 625 l 208 625 l 208 521 z "},"Æ":{"ha":1146,"x_min":0,"x_max":1042,"o":"m 208 0 l 0 0 l 0 521 l 1042 521 l 1042 417 l 625 417 l 625 313 l 833 313 l 833 208 l 625 208 l 625 104 l 1042 104 l 1042 0 l 417 0 l 417 208 l 208 208 l 208 0 m 208 313 l 417 313 l 417 417 l 208 417 l 208 313 z "},"Ç":{"ha":729,"x_min":0,"x_max":625,"o":"m 208 -104 l 313 -104 l 313 0 l 0 0 l 0 521 l 625 521 l 625 417 l 208 417 l 208 104 l 625 104 l 625 0 l 417 0 l 417 -208 l 208 -208 l 208 -104 z "},"È":{"ha":729,"x_min":0,"x_max":625,"o":"m 0 521 l 208 521 l 208 625 l 104 625 l 104 729 l 313 729 l 313 625 l 417 625 l 417 521 l 625 521 l 625 417 l 208 417 l 208 313 l 417 313 l 417 208 l 208 208 l 208 104 l 625 104 l 625 0 l 0 0 l 0 521 z "},"É":{"ha":729,"x_min":0,"x_max":625,"o":"m 0 521 l 208 521 l 208 625 l 313 625 l 313 729 l 521 729 l 521 625 l 417 625 l 417 521 l 625 521 l 625 417 l 208 417 l 208 313 l 417 313 l 417 208 l 208 208 l 208 104 l 625 104 l 625 0 l 0 0 l 0 521 z "},"Ê":{"ha":729,"x_min":0,"x_max":625,"o":"m 0 521 l 104 521 l 104 625 l 208 625 l 208 521 l 417 521 l 417 625 l 208 625 l 208 729 l 417 729 l 417 625 l 521 625 l 521 521 l 625 521 l 625 417 l 208 417 l 208 313 l 417 313 l 417 208 l 208 208 l 208 104 l 625 104 l 625 0 l 0 0 l 0 521 z "},"Ë":{"ha":729,"x_min":0,"x_max":625,"o":"m 0 521 l 625 521 l 625 417 l 208 417 l 208 313 l 417 313 l 417 208 l 208 208 l 208 104 l 625 104 l 625 0 l 0 0 l 0 521 m 417 729 l 625 729 l 625 625 l 417 625 l 417 729 m 0 729 l 208 729 l 208 625 l 0 625 l 0 729 z "},"Ì":{"ha":729,"x_min":0,"x_max":625,"o":"m 0 521 l 208 521 l 208 625 l 104 625 l 104 729 l 313 729 l 313 625 l 417 625 l 417 521 l 625 521 l 625 417 l 417 417 l 417 104 l 625 104 l 625 0 l 0 0 l 0 104 l 208 104 l 208 417 l 0 417 l 0 521 z "},"Í":{"ha":729,"x_min":0,"x_max":625,"o":"m 0 521 l 208 521 l 208 625 l 313 625 l 313 729 l 521 729 l 521 625 l 417 625 l 417 521 l 625 521 l 625 417 l 417 417 l 417 104 l 625 104 l 625 0 l 0 0 l 0 104 l 208 104 l 208 417 l 0 417 l 0 521 z "},"Î":{"ha":729,"x_min":0,"x_max":625,"o":"m 0 521 l 104 521 l 104 625 l 208 625 l 208 521 l 417 521 l 417 625 l 208 625 l 208 729 l 417 729 l 417 625 l 521 625 l 521 521 l 625 521 l 625 417 l 417 417 l 417 104 l 625 104 l 625 0 l 0 0 l 0 104 l 208 104 l 208 417 l 0 417 l 0 521 z "},"Ï":{"ha":729,"x_min":0,"x_max":625,"o":"m 0 521 l 625 521 l 625 417 l 417 417 l 417 104 l 625 104 l 625 0 l 0 0 l 0 104 l 208 104 l 208 417 l 0 417 l 0 521 m 0 729 l 208 729 l 208 625 l 0 625 l 0 729 m 417 729 l 625 729 l 625 625 l 417 625 l 417 729 z "},"Ð":{"ha":833,"x_min":0,"x_max":729,"o":"m 0 313 l 104 313 l 104 521 l 625 521 l 625 417 l 729 417 l 729 104 l 625 104 l 625 0 l 104 0 l 104 208 l 0 208 l 0 313 m 313 104 l 521 104 l 521 417 l 313 417 l 313 313 l 417 313 l 417 208 l 313 208 l 313 104 z "},"Ñ":{"ha":729,"x_min":0,"x_max":625,"o":"m 313 625 l 104 625 l 104 729 l 313 729 l 313 625 l 521 625 l 521 521 l 625 521 l 625 0 l 417 0 l 417 104 l 313 104 l 313 208 l 208 208 l 208 0 l 0 0 l 0 625 l 104 625 l 104 521 l 208 521 l 208 417 l 313 417 l 313 313 l 417 313 l 417 521 l 313 521 l 313 625 m 521 729 l 625 729 l 625 625 l 521 625 l 521 729 z "},"Ò":{"ha":729,"x_min":0,"x_max":625,"o":"m 0 521 l 208 521 l 208 625 l 104 625 l 104 729 l 313 729 l 313 625 l 417 625 l 417 521 l 625 521 l 625 0 l 0 0 l 0 521 m 208 104 l 417 104 l 417 417 l 208 417 l 208 104 z "},"Ó":{"ha":729,"x_min":0,"x_max":625,"o":"m 0 521 l 208 521 l 208 625 l 313 625 l 313 729 l 521 729 l 521 625 l 417 625 l 417 521 l 625 521 l 625 0 l 0 0 l 0 521 m 208 104 l 417 104 l 417 417 l 208 417 l 208 104 z "},"Ô":{"ha":729,"x_min":0,"x_max":625,"o":"m 0 521 l 104 521 l 104 625 l 208 625 l 208 521 l 417 521 l 417 625 l 208 625 l 208 729 l 417 729 l 417 625 l 521 625 l 521 521 l 625 521 l 625 0 l 0 0 l 0 521 m 208 104 l 417 104 l 417 417 l 208 417 l 208 104 z "},"Õ":{"ha":729,"x_min":0,"x_max":625,"o":"m 104 625 l 104 521 l 313 521 l 313 625 l 104 625 l 104 729 l 313 729 l 313 625 l 521 625 l 521 521 l 625 521 l 625 0 l 0 0 l 0 625 l 104 625 m 208 104 l 417 104 l 417 417 l 208 417 l 208 104 m 521 729 l 625 729 l 625 625 l 521 625 l 521 729 z "},"Ö":{"ha":729,"x_min":0,"x_max":625,"o":"m 0 521 l 625 521 l 625 0 l 0 0 l 0 521 m 208 104 l 417 104 l 417 417 l 208 417 l 208 104 m 0 729 l 208 729 l 208 625 l 0 625 l 0 729 m 417 729 l 625 729 l 625 625 l 417 625 l 417 729 z "},"×":{"ha":625,"x_min":0,"x_max":521,"o":"m 104 417 l 0 417 l 0 521 l 104 521 l 104 417 l 208 417 l 208 313 l 313 313 l 313 208 l 417 208 l 417 104 l 521 104 l 521 0 l 417 0 l 417 104 l 313 104 l 313 208 l 208 208 l 208 313 l 104 313 l 104 417 m 417 521 l 521 521 l 521 417 l 417 417 l 417 521 m 313 417 l 417 417 l 417 313 l 313 313 l 313 417 m 104 208 l 208 208 l 208 104 l 104 104 l 104 208 m 0 104 l 104 104 l 104 0 l 0 0 l 0 104 z "},"Ø":{"ha":729,"x_min":0,"x_max":625,"o":"m 0 521 l 521 521 l 521 625 l 625 625 l 625 0 l 104 0 l 104 -104 l 0 -104 l 0 521 m 313 104 l 417 104 l 417 208 l 313 208 l 313 104 m 208 313 l 313 313 l 313 417 l 208 417 l 208 313 z "},"Ù":{"ha":729,"x_min":0,"x_max":625,"o":"m 0 521 l 208 521 l 208 104 l 417 104 l 417 521 l 208 521 l 208 625 l 104 625 l 104 729 l 313 729 l 313 625 l 417 625 l 417 521 l 625 521 l 625 0 l 0 0 l 0 521 z "},"Ú":{"ha":729,"x_min":0,"x_max":625,"o":"m 208 625 l 313 625 l 313 729 l 521 729 l 521 625 l 417 625 l 417 521 l 625 521 l 625 0 l 0 0 l 0 521 l 208 521 l 208 625 m 208 104 l 417 104 l 417 521 l 208 521 l 208 104 z "},"Û":{"ha":729,"x_min":0,"x_max":625,"o":"m 0 521 l 104 521 l 104 625 l 208 625 l 208 104 l 417 104 l 417 625 l 208 625 l 208 729 l 417 729 l 417 625 l 521 625 l 521 521 l 625 521 l 625 0 l 0 0 l 0 521 z "},"Ü":{"ha":729,"x_min":0,"x_max":625,"o":"m 0 521 l 208 521 l 208 104 l 417 104 l 417 521 l 625 521 l 625 0 l 0 0 l 0 521 m 0 729 l 208 729 l 208 625 l 0 625 l 0 729 m 417 729 l 625 729 l 625 625 l 417 625 l 417 729 z "},"Ý":{"ha":729,"x_min":0,"x_max":625,"o":"m 208 625 l 313 625 l 313 729 l 521 729 l 521 625 l 417 625 l 417 521 l 625 521 l 625 313 l 521 313 l 521 208 l 417 208 l 417 0 l 208 0 l 208 208 l 104 208 l 104 313 l 0 313 l 0 521 l 208 521 l 208 625 m 208 313 l 417 313 l 417 521 l 208 521 l 208 313 z "},"Þ":{"ha":625,"x_min":0,"x_max":521,"o":"m 208 0 l 0 0 l 0 521 l 208 521 l 208 417 l 417 417 l 417 313 l 521 313 l 521 208 l 417 208 l 417 104 l 208 104 l 208 0 m 313 313 l 208 313 l 208 208 l 313 208 l 313 313 z "},"ß":{"ha":729,"x_min":0,"x_max":625,"o":"m 208 0 l 0 0 l 0 521 l 521 521 l 521 313 l 625 313 l 625 0 l 313 0 l 313 104 l 417 104 l 417 208 l 313 208 l 313 417 l 208 417 l 208 0 z "},"à":{"ha":729,"x_min":0,"x_max":625,"o":"m 0 521 l 208 521 l 208 625 l 104 625 l 104 729 l 313 729 l 313 625 l 417 625 l 417 521 l 625 521 l 625 0 l 0 0 l 0 313 l 417 313 l 417 417 l 0 417 l 0 521 m 417 208 l 208 208 l 208 104 l 417 104 l 417 208 z "},"á":{"ha":729,"x_min":0,"x_max":625,"o":"m 0 521 l 208 521 l 208 625 l 313 625 l 313 729 l 521 729 l 521 625 l 417 625 l 417 521 l 625 521 l 625 0 l 0 0 l 0 313 l 417 313 l 417 417 l 0 417 l 0 521 m 417 208 l 208 208 l 208 104 l 417 104 l 417 208 z "},"â":{"ha":729,"x_min":0,"x_max":625,"o":"m 0 521 l 104 521 l 104 625 l 208 625 l 208 521 l 417 521 l 417 625 l 208 625 l 208 729 l 417 729 l 417 625 l 521 625 l 521 521 l 625 521 l 625 0 l 0 0 l 0 313 l 417 313 l 417 417 l 0 417 l 0 521 m 417 208 l 208 208 l 208 104 l 417 104 l 417 208 z "},"ã":{"ha":729,"x_min":0,"x_max":625,"o":"m 104 625 l 104 521 l 313 521 l 313 625 l 104 625 l 104 729 l 313 729 l 313 625 l 521 625 l 521 521 l 625 521 l 625 0 l 0 0 l 0 313 l 417 313 l 417 417 l 0 417 l 0 625 l 104 625 m 417 208 l 208 208 l 208 104 l 417 104 l 417 208 m 521 729 l 625 729 l 625 625 l 521 625 l 521 729 z "},"ä":{"ha":729,"x_min":0,"x_max":625,"o":"m 0 521 l 625 521 l 625 0 l 0 0 l 0 313 l 417 313 l 417 417 l 0 417 l 0 521 m 417 208 l 208 208 l 208 104 l 417 104 l 417 208 m 0 729 l 208 729 l 208 625 l 0 625 l 0 729 m 417 729 l 625 729 l 625 625 l 417 625 l 417 729 z "},"å":{"ha":729,"x_min":0,"x_max":625,"o":"m 0 521 l 104 521 l 104 729 l 521 729 l 521 521 l 625 521 l 625 0 l 0 0 l 0 313 l 417 313 l 417 417 l 0 417 l 0 521 m 208 521 l 417 521 l 417 625 l 208 625 l 208 521 m 417 208 l 208 208 l 208 104 l 417 104 l 417 208 z "},"æ":{"ha":1146,"x_min":0,"x_max":1042,"o":"m 625 104 l 1042 104 l 1042 0 l 0 0 l 0 313 l 417 313 l 417 417 l 0 417 l 0 521 l 1042 521 l 1042 208 l 625 208 l 625 104 m 208 104 l 417 104 l 417 208 l 208 208 l 208 104 m 625 313 l 833 313 l 833 417 l 625 417 l 625 313 z "},"ç":{"ha":729,"x_min":0,"x_max":625,"o":"m 208 -104 l 313 -104 l 313 0 l 0 0 l 0 521 l 625 521 l 625 417 l 208 417 l 208 104 l 625 104 l 625 0 l 417 0 l 417 -208 l 208 -208 l 208 -104 z "},"è":{"ha":729,"x_min":0,"x_max":625,"o":"m 208 104 l 625 104 l 625 0 l 0 0 l 0 521 l 208 521 l 208 625 l 104 625 l 104 729 l 313 729 l 313 625 l 417 625 l 417 521 l 625 521 l 625 208 l 208 208 l 208 104 m 208 313 l 417 313 l 417 417 l 208 417 l 208 313 z "},"é":{"ha":729,"x_min":0,"x_max":625,"o":"m 208 104 l 625 104 l 625 0 l 0 0 l 0 521 l 208 521 l 208 625 l 313 625 l 313 729 l 521 729 l 521 625 l 417 625 l 417 521 l 625 521 l 625 208 l 208 208 l 208 104 m 208 313 l 417 313 l 417 417 l 208 417 l 208 313 z "},"ê":{"ha":729,"x_min":0,"x_max":625,"o":"m 208 104 l 625 104 l 625 0 l 0 0 l 0 521 l 104 521 l 104 625 l 208 625 l 208 521 l 417 521 l 417 625 l 208 625 l 208 729 l 417 729 l 417 625 l 521 625 l 521 521 l 625 521 l 625 208 l 208 208 l 208 104 m 208 313 l 417 313 l 417 417 l 208 417 l 208 313 z "},"ë":{"ha":729,"x_min":0,"x_max":625,"o":"m 208 104 l 625 104 l 625 0 l 0 0 l 0 521 l 625 521 l 625 208 l 208 208 l 208 104 m 208 313 l 417 313 l 417 417 l 208 417 l 208 313 m 0 729 l 208 729 l 208 625 l 0 625 l 0 729 m 417 729 l 625 729 l 625 625 l 417 625 l 417 729 z "},"ì":{"ha":417,"x_min":104,"x_max":417,"o":"m 104 521 l 208 521 l 208 625 l 104 625 l 104 729 l 313 729 l 313 625 l 417 625 l 417 521 l 313 521 l 313 0 l 104 0 l 104 521 z "},"í":{"ha":417,"x_min":0,"x_max":313,"o":"m 0 625 l 104 625 l 104 729 l 313 729 l 313 625 l 208 625 l 208 521 l 313 521 l 313 0 l 104 0 l 104 521 l 0 521 l 0 625 z "},"î":{"ha":417,"x_min":0,"x_max":417,"o":"m 104 521 l 0 521 l 0 625 l 104 625 l 104 521 l 313 521 l 313 0 l 104 0 l 104 521 m 313 625 l 104 625 l 104 729 l 313 729 l 313 625 l 417 625 l 417 521 l 313 521 l 313 625 z "},"ï":{"ha":417,"x_min":0,"x_max":417,"o":"m 104 521 l 0 521 l 0 729 l 104 729 l 104 521 l 313 521 l 313 0 l 104 0 l 104 521 m 313 729 l 417 729 l 417 521 l 313 521 l 313 729 z "},"ð":{"ha":833,"x_min":0,"x_max":729,"o":"m 0 313 l 104 313 l 104 521 l 625 521 l 625 417 l 729 417 l 729 104 l 625 104 l 625 0 l 104 0 l 104 208 l 0 208 l 0 313 m 313 104 l 521 104 l 521 417 l 313 417 l 313 313 l 417 313 l 417 208 l 313 208 l 313 104 z "},"ñ":{"ha":729,"x_min":0,"x_max":625,"o":"m 208 0 l 0 0 l 0 625 l 104 625 l 104 521 l 313 521 l 313 625 l 104 625 l 104 729 l 313 729 l 313 625 l 521 625 l 521 521 l 625 521 l 625 0 l 417 0 l 417 417 l 208 417 l 208 0 m 521 729 l 625 729 l 625 625 l 521 625 l 521 729 z "},"ò":{"ha":729,"x_min":0,"x_max":625,"o":"m 0 521 l 208 521 l 208 625 l 104 625 l 104 729 l 313 729 l 313 625 l 417 625 l 417 521 l 625 521 l 625 0 l 0 0 l 0 521 m 208 104 l 417 104 l 417 417 l 208 417 l 208 104 z "},"ó":{"ha":729,"x_min":0,"x_max":625,"o":"m 0 521 l 208 521 l 208 625 l 313 625 l 313 729 l 521 729 l 521 625 l 417 625 l 417 521 l 625 521 l 625 0 l 0 0 l 0 521 m 208 104 l 417 104 l 417 417 l 208 417 l 208 104 z "},"ô":{"ha":729,"x_min":0,"x_max":625,"o":"m 0 521 l 104 521 l 104 625 l 208 625 l 208 521 l 417 521 l 417 625 l 208 625 l 208 729 l 417 729 l 417 625 l 521 625 l 521 521 l 625 521 l 625 0 l 0 0 l 0 521 m 208 104 l 417 104 l 417 417 l 208 417 l 208 104 z "},"õ":{"ha":729,"x_min":0,"x_max":625,"o":"m 104 625 l 104 521 l 313 521 l 313 625 l 104 625 l 104 729 l 313 729 l 313 625 l 521 625 l 521 521 l 625 521 l 625 0 l 0 0 l 0 625 l 104 625 m 208 104 l 417 104 l 417 417 l 208 417 l 208 104 m 521 729 l 625 729 l 625 625 l 521 625 l 521 729 z "},"ö":{"ha":729,"x_min":0,"x_max":625,"o":"m 0 521 l 625 521 l 625 0 l 0 0 l 0 521 m 208 104 l 417 104 l 417 417 l 208 417 l 208 104 m 0 729 l 208 729 l 208 625 l 0 625 l 0 729 m 417 729 l 625 729 l 625 625 l 417 625 l 417 729 z "},"÷":{"ha":625,"x_min":0,"x_max":521,"o":"m 0 313 l 521 313 l 521 208 l 0 208 l 0 313 m 208 521 l 313 521 l 313 417 l 208 417 l 208 521 m 208 104 l 313 104 l 313 0 l 208 0 l 208 104 z "},"ø":{"ha":729,"x_min":0,"x_max":625,"o":"m 0 521 l 521 521 l 521 625 l 625 625 l 625 0 l 104 0 l 104 -104 l 0 -104 l 0 521 m 313 104 l 417 104 l 417 208 l 313 208 l 313 104 m 208 313 l 313 313 l 313 417 l 208 417 l 208 313 z "},"ù":{"ha":729,"x_min":0,"x_max":625,"o":"m 0 521 l 208 521 l 208 104 l 417 104 l 417 521 l 208 521 l 208 625 l 104 625 l 104 729 l 313 729 l 313 625 l 417 625 l 417 521 l 625 521 l 625 0 l 0 0 l 0 521 z "},"ú":{"ha":729,"x_min":0,"x_max":625,"o":"m 208 625 l 313 625 l 313 729 l 521 729 l 521 625 l 417 625 l 417 521 l 625 521 l 625 0 l 0 0 l 0 521 l 208 521 l 208 625 m 208 104 l 417 104 l 417 521 l 208 521 l 208 104 z "},"û":{"ha":729,"x_min":0,"x_max":625,"o":"m 0 521 l 104 521 l 104 625 l 208 625 l 208 104 l 417 104 l 417 625 l 208 625 l 208 729 l 417 729 l 417 625 l 521 625 l 521 521 l 625 521 l 625 0 l 0 0 l 0 521 z "},"ü":{"ha":729,"x_min":0,"x_max":625,"o":"m 0 521 l 208 521 l 208 104 l 417 104 l 417 521 l 625 521 l 625 0 l 0 0 l 0 521 m 0 729 l 208 729 l 208 625 l 0 625 l 0 729 m 417 729 l 625 729 l 625 625 l 417 625 l 417 729 z "},"ý":{"ha":729,"x_min":0,"x_max":625,"o":"m 208 625 l 313 625 l 313 729 l 521 729 l 521 625 l 417 625 l 417 521 l 625 521 l 625 0 l 0 0 l 0 104 l 417 104 l 417 208 l 0 208 l 0 521 l 208 521 l 208 625 m 208 313 l 417 313 l 417 521 l 208 521 l 208 313 z "},"þ":{"ha":625,"x_min":0,"x_max":521,"o":"m 208 625 l 208 417 l 417 417 l 417 313 l 521 313 l 521 208 l 417 208 l 417 104 l 208 104 l 208 -104 l 0 -104 l 0 625 l 208 625 m 313 313 l 208 313 l 208 208 l 313 208 l 313 313 z "},"ÿ":{"ha":729,"x_min":0,"x_max":625,"o":"m 0 104 l 417 104 l 417 208 l 0 208 l 0 521 l 208 521 l 208 313 l 417 313 l 417 521 l 625 521 l 625 0 l 0 0 l 0 104 m 0 729 l 208 729 l 208 625 l 0 625 l 0 729 m 417 729 l 625 729 l 625 625 l 417 625 l 417 729 z "},"":{"ha":0,"x_min":0,"x_max":0,"o":""},"":{"ha":694,"x_min":0,"x_max":0,"o":""}}}
